<?xml version="1.0" encoding="utf-8"?>
<!-- Generator: Adobe Illustrator 16.0.0, SVG Export Plug-In . SVG Version: 6.00 Build 0)  -->
<!DOCTYPE svg PUBLIC "-//W3C//DTD SVG 1.0//EN" "http://www.w3.org/TR/2001/REC-SVG-20010904/DTD/svg10.dtd">
<svg version="1.0" id="Layer_1" xmlns="http://www.w3.org/2000/svg" xmlns:xlink="http://www.w3.org/1999/xlink" x="0px" y="0px"
	 width="868.589px" height="134.176px" viewBox="0 0 868.589 134.176" enable-background="new 0 0 868.589 134.176"
	 xml:space="preserve">
<path fill="#2F2F2F" d="M65.913,5.857c-34.592,0-62.635,28.045-62.635,62.633c0,34.595,28.043,62.638,62.635,62.638
	c34.593,0,62.636-28.043,62.636-62.638C128.548,33.902,100.505,5.857,65.913,5.857z M65.913,83.701
	c-8.399,0-15.211-6.807-15.211-15.211c0-8.398,6.812-15.207,15.211-15.207s15.213,6.809,15.213,15.207
	C81.125,76.894,74.312,83.701,65.913,83.701z"/>
<path fill="#2F2F2F" d="M209.255,25.189h21.077l-0.552,13.53l0.46,0.092c4.294-9.756,13.253-14.634,26.875-14.634
	c15.891,0,24.726,5.431,26.507,16.29h0.368c4.11-10.859,13.162-16.29,27.151-16.29c20.371,0,30.557,10.246,30.557,30.74v58.259
	H320.62V59.52c0-12.456-5.123-18.685-15.37-18.685c-12.825,0-19.236,6.965-19.236,20.893v51.448h-21.076V58.691
	c0-7.302-0.967-12.104-2.899-14.405c-1.933-2.301-6.028-3.45-12.287-3.45c-12.947,0-19.42,7.117-19.42,21.353v50.988h-21.077V25.189
	z"/>
<path fill="#2F2F2F" d="M363.233,25.189h21.076l-0.552,13.53l0.46,0.092c4.294-9.756,13.254-14.634,26.875-14.634
	c15.891,0,24.726,5.431,26.507,16.29h0.368c4.109-10.859,13.161-16.29,27.15-16.29c20.371,0,30.557,10.246,30.557,30.74v58.259
	h-21.077V59.52c0-12.456-5.123-18.685-15.369-18.685c-12.825,0-19.236,6.965-19.236,20.893v51.448h-21.076V58.691
	c0-7.302-0.967-12.104-2.899-14.405c-1.933-2.301-6.028-3.45-12.287-3.45c-12.946,0-19.419,7.117-19.419,21.353v50.988h-21.076
	V25.189z"/>
<path fill="#2F2F2F" d="M573.904,85.013h21.168v3.405c0,17.181-12.885,25.771-38.655,25.771c-17.487,0-28.929-2.976-34.327-8.928
	c-5.4-5.951-8.1-18.561-8.1-37.827c0-17.118,2.822-28.623,8.467-34.514c5.646-5.891,16.656-8.835,33.039-8.835
	c15.708,0,26.233,2.867,31.571,8.604c5.338,5.74,8.005,17.014,8.005,33.825v6.442h-59.546c-0.122,1.964-0.184,3.252-0.184,3.865
	c0,8.652,1.336,14.42,4.003,17.303c2.671,2.885,7.99,4.326,15.967,4.326c7.73,0,12.763-0.842,15.094-2.53
	C572.738,94.234,573.904,90.597,573.904,85.013z M574.088,60.072l-0.09-3.498c0-6.994-1.213-11.535-3.634-13.621
	c-2.426-2.086-7.689-3.129-15.788-3.129c-7.854,0-12.961,1.258-15.32,3.773c-2.365,2.516-3.545,8.007-3.545,16.475H574.088z"/>
<path fill="#2F2F2F" d="M613.205,25.189h21.075l-1.289,12.333l0.462,0.093c5.032-9.204,12.947-13.806,23.746-13.806
	c15.462,0,23.193,9.756,23.193,29.268v6.167h-19.88c0.245-2.394,0.368-3.958,0.368-4.694c0-9.388-3.652-14.082-10.955-14.082
	c-10.431,0-15.646,6.964-15.646,20.893v51.816h-21.075V25.189z"/>
<path fill="#2F2F2F" d="M765.524,49.395h-20.616c-0.123-0.736-0.213-1.288-0.274-1.656c-0.429-4.234-1.643-6.872-3.634-7.915
	c-1.997-1.044-6.83-1.565-14.499-1.565c-10.983,0-16.472,3.56-16.472,10.677c0,4.847,0.967,7.731,2.896,8.651
	c1.936,0.92,8.482,1.657,19.649,2.209c15.032,0.736,24.821,2.73,29.362,5.982c4.54,3.252,6.811,9.909,6.811,19.972
	c0,10.738-3.025,18.177-9.066,22.32c-6.046,4.14-16.889,6.211-32.534,6.211c-15.033,0-25.312-1.871-30.835-5.614
	c-5.522-3.742-8.283-10.737-8.283-20.984v-2.208h21.904c-0.307,1.227-0.49,2.208-0.552,2.944
	c-0.858,7.793,5.153,11.688,18.04,11.688c13.313,0,19.974-3.865,19.974-11.596c0-7.425-4.173-11.137-12.518-11.137
	c-18.837,0-31.245-1.779-37.229-5.339c-5.98-3.558-8.973-10.952-8.973-22.181c0-10.062,2.729-16.873,8.189-20.432
	c5.46-3.56,15.953-5.338,31.477-5.338c14.664,0,24.528,1.718,29.593,5.153C762.995,32.675,765.524,39.394,765.524,49.395z"/>
<path fill="#2F2F2F" d="M842.009,85.013h21.169v3.405c0,17.181-12.885,25.771-38.655,25.771c-17.487,0-28.933-2.976-34.332-8.928
	c-5.4-5.951-8.099-18.561-8.099-37.827c0-17.118,2.821-28.623,8.466-34.514c5.646-5.891,16.662-8.835,33.044-8.835
	c15.708,0,26.229,2.867,31.566,8.604c5.339,5.74,8.01,17.014,8.01,33.825v6.442h-59.551c-0.122,1.964-0.184,3.252-0.184,3.865
	c0,8.652,1.336,14.42,4.003,17.303c2.671,2.885,7.995,4.326,15.972,4.326c7.73,0,12.763-0.842,15.094-2.53
	C840.843,94.234,842.009,90.597,842.009,85.013z M842.193,60.072l-0.095-3.498c0-6.994-1.213-11.535-3.634-13.621
	c-2.426-2.086-7.684-3.129-15.783-3.129c-7.854,0-12.966,1.258-15.325,3.773c-2.364,2.516-3.545,8.007-3.545,16.475H842.193z"/>
<path fill="#2F2F2F" d="M188.547,25.189v87.987H167.47V25.189H188.547z"/>
</svg>
