<?xml version="1.0" encoding="utf-8"?>
<!-- Generator: Adobe Illustrator 16.0.0, SVG Export Plug-In . SVG Version: 6.00 Build 0)  -->
<!DOCTYPE svg PUBLIC "-//W3C//DTD SVG 1.0//EN" "http://www.w3.org/TR/2001/REC-SVG-20010904/DTD/svg10.dtd">
<svg version="1.0" id="Layer_1" xmlns="http://www.w3.org/2000/svg" xmlns:xlink="http://www.w3.org/1999/xlink" x="0px" y="0px"
	 width="1000px" height="987px" viewBox="0 0 1000 987" enable-background="new 0 0 1000 987" xml:space="preserve">
<g>
	<g>
		<path fill="#FFFFFF" d="M267.29,118.71c70.7-44.28,154.38-67.17,237.7-66.21c6.81-0.29,13.57,0.72,20.39,0.58
			c6.7,0.79,13.521,0.87,20.24,1.78c97.489,9.63,191.199,53.28,261.319,121.68c5.75,4.59,10.16,10.54,15.44,15.61
			c25.979,27.82,48.45,58.94,66.5,92.47c25.32,47.21,42.14,99.05,48.75,152.24c0.24,1.75,0.46,3.5,0.74,5.25
			c0.39,4.59,1,9.16,1.26,13.77c0.63,2.71,0.06,5.55,0.78,8.26c0,6.15,0.9,12.26,0.58,18.43c-0.271,3.98,0.43,7.92,0.5,11.89
			c-0.881,6.86-0.36,13.79-0.49,20.69l-0.55,0.859c0.26,6.641-0.71,13.25-1.101,19.87c-4.77,49.66-17.67,98.61-38.869,143.81
			c-18.131,39.051-42.011,75.45-70.65,107.61c-58.891,66.2-138.09,114.261-224.29,135.061c-15.46,3.74-31.12,6.829-46.92,8.77
			c-2.65,0.46-5.33,0.801-8.011,1c-3.35,0.5-6.729,0.9-10.119,0.87l-0.84,0.48c-22.041,1.38-44.24,2.42-66.271,0.609
			c-8.96-0.229-17.86-1.359-26.77-2.229c-75.74-9.05-148.96-38.221-210.04-83.93c-51.98-38.771-95.46-88.95-125.96-146.221
			c-28.26-52.93-45.64-111.739-50.23-171.59c-1.8-17.81-1.34-35.74-1.39-53.63c-0.02-1.23,0.13-2.43,0.439-3.61
			c0.23-11.72,1.45-23.41,2.94-35.03c10.73-87.36,48.7-171.08,107.3-236.76C198.05,169.16,230.96,141.22,267.29,118.71z
			 M421.19,317.19c-18.32,1.86-36.47,7.21-52.13,17.04c-18.92,11.96-33.06,30.14-43.49,49.7c-9.21,18.12-15.96,37.35-22.13,56.68
			c-23.64,77.13-47.61,154.16-71.18,231.31c42.34,0.149,84.68-0.01,127.03,0.08c34.11-118.88,68.59-237.65,102.77-356.51
			C448.41,315.52,434.76,315.6,421.19,317.19z M534.39,327.9c-24.43,11.06-42.649,32.4-54.95,55.76
			c-9.15,17.65-15.71,36.48-21.82,55.36C433.81,516.7,409.59,594.26,386,672c42.32-0.069,84.64,0,126.96-0.029
			c34.08-118.851,68.7-237.551,102.67-356.431C588.24,315.43,559.68,316.08,534.39,327.9z M704.65,321.36
			c-17.621,4.72-34.271,13.71-47.041,26.83c-8.959,8.51-16.25,18.62-22.529,29.2c-10.86,19.23-18.34,40.1-25.09,61.05
			c-23.91,77.89-48.141,155.68-71.83,233.64c42.279-0.21,84.58-0.1,126.869-0.061c30.86-106.659,61.631-213.35,92.381-320.04
			c3.33-12.16,7.199-24.19,10.18-36.44C746.52,315.46,725.13,315.82,704.65,321.36z"/>
	</g>
</g>
</svg>
