<svg xmlns="http://www.w3.org/2000/svg" viewBox="0 0 318.67 318.67"><defs><style>.a{fill:#faa41a;}</style></defs><title>logo-a</title><path class="a" d="M184,22C96.12,22,24.64,93.48,24.64,181.33S96.12,340.67,184,340.67s159.33-71.48,159.33-159.34S271.83,22,184,22ZM88.12,246.72l26.74-97.87C126.3,120.25,144.35,116,162.35,116V116h8.49L130.22,246.72Zm55,0,26.74-97.87C181.3,120.25,199.35,116,217.35,116V116h8.49L185.22,246.72Zm96.09,0H197.12l26.74-97.87C235.3,120.25,253.35,116,271.35,116V116h8.49Z" transform="translate(-24.64 -22)"/></svg>